# Blender v2.82 (sub 7) OBJ File: 'buildingparking.blend'
# www.blender.org
mtllib buildingwalls.mtl
o Plane_Plane.001
v 0.000000 6.000000 15.000000
v 0.000000 0.000000 15.000000
v 0.000000 6.000000 -15.000000
v 0.000000 0.000000 -15.000000
v 30.000000 6.000000 15.000000
v 30.000000 -0.000000 15.000000
v 30.000000 6.000000 -15.000000
v 30.000000 -0.000000 -15.000000
v 0.000000 0.000000 0.000000
v 0.000000 0.000000 -10.000000
v 0.000000 0.000000 11.000000
v 0.000000 0.000000 4.000000
v 0.000000 0.000000 -4.000000
v 0.000000 5.000000 15.000000
v 0.000000 5.000000 -15.000000
v 30.000000 5.000000 -15.000000
v 0.000000 5.000000 -10.000000
v 0.000000 5.000000 11.000000
v 0.000000 5.000000 4.000000
v 0.000000 5.000000 -4.000000
v 0.000000 1.000000 15.000000
v 30.000000 1.000000 -15.000000
v 0.000000 1.000000 -15.000000
v 0.000000 1.000000 -10.000000
v 0.000000 1.000000 11.000000
v 0.000000 1.000000 4.000000
v 0.000000 1.000000 -4.000000
v 12.000000 0.000000 -15.000000
v 12.000000 5.000000 -15.000000
v 12.000000 1.000000 -15.000000
v 5.000000 5.000000 -15.000000
v 5.000000 1.000000 -15.000000
v 5.000000 0.000000 -15.000000
v 21.000000 0.000000 -15.000000
v 21.000000 5.000000 -15.000000
v 21.000000 1.000000 -15.000000
v 22.000000 0.000000 -15.000000
v 22.000000 5.000000 -15.000000
v 22.000000 1.000000 -15.000000
v 29.000000 0.000000 -15.000000
v 29.000000 5.000000 -15.000000
v 29.000000 1.000000 -15.000000
v 14.000000 5.000000 -15.000000
v 14.000000 1.000000 -15.000000
v 14.000000 -0.000000 -15.000000
v 30.000000 5.000000 -15.000000
vt 0.833333 0.011111
vt 0.800000 0.011111
vt 0.800000 0.000000
vt 0.833333 0.000000
vt 0.000000 0.000000
vt 0.800000 0.024444
vt 0.833333 0.024444
vt 0.833333 0.042222
vt 0.800000 0.042222
vt 0.833333 0.066667
vt 0.800000 0.066667
vt 0.800000 0.057778
vt 0.833333 0.057778
vt 0.000000 0.000000
vt 0.000000 0.000000
vt 0.966667 0.000000
vt 0.100000 0.000000
vt 0.400000 1.000000
vt 0.966667 0.066667
vt 0.966667 0.057778
vt 0.966667 0.011111
vt 0.266667 0.966667
vt 0.266667 1.000000
vt 0.133333 1.000000
vt 0.133333 0.966667
vt 0.300000 0.966667
vt 0.300000 1.000000
vt 0.300000 0.733333
vt 0.266667 0.733333
vt 0.300000 0.166667
vt 0.300000 0.400000
vt 0.266667 0.400000
vt 0.266667 0.166667
vt 0.266667 0.000000
vt 0.133333 0.166667
vt 0.133333 0.000000
vt 0.300000 0.000000
vt 0.300000 0.466667
vt 0.300000 0.700000
vt 0.266667 0.700000
vt 0.266667 0.466667
vt 0.133333 0.733333
vt 0.133333 0.700000
vt 0.600000 1.000000
vt 0.566667 1.000000
vt 0.433333 1.000000
vt 0.400000 0.000000
vt 0.600000 0.000000
vt 1.000000 0.122222
vt 1.000000 0.133333
vt 0.800000 0.133333
vt 0.800000 0.066667
vt 1.000000 0.066667
vt 1.000000 0.077778
vt 0.133333 0.400000
vt 0.133333 0.466667
vt 0.100000 1.000000
vn 1.0000 0.0000 0.0000
vn -0.0000 0.0000 1.0000
vn 0.0000 0.0000 -1.0000
vn -1.0000 0.0000 0.0000
usemtl Material.001
s off
f 24/1/1 10/2/1 4/3/1 23/4/1
f 9/5/1 13/6/1 27/7/1 26/8/1 12/9/1
f 27/7/1 13/6/1 10/2/1 24/1/1
f 21/10/1 2/11/1 11/12/1 25/13/1
f 25/13/1 11/12/1 12/9/1 26/8/1
f 19/14/1 26/8/1 27/7/1 20/15/1
f 15/16/1 3/17/1 1/18/1 14/19/1 18/20/1 19/14/1 20/15/1 17/21/1
f 42/22/2 22/23/2 16/24/2 41/25/2
f 40/26/2 8/27/2 22/23/2 42/22/2
f 37/28/2 40/26/2 42/22/2 39/29/2
f 14/19/1 21/10/1 25/13/1 18/20/1
f 17/21/1 24/1/1 23/4/1 15/16/1
f 33/30/2 28/31/2 30/32/2 32/33/2
f 23/34/2 32/33/2 31/35/2 15/36/2
f 4/37/2 33/30/2 32/33/2 23/34/2
f 45/38/2 34/39/2 36/40/2 44/41/2
f 34/39/2 37/28/2 39/29/2 36/40/2
f 36/40/2 39/29/2 38/42/2 35/43/2
f 2/44/3 21/45/3 14/46/3 1/18/3 5/47/3 6/48/3
f 22/49/4 8/50/4 6/51/4 5/52/4 7/53/4 16/54/4
f 15/36/2 31/35/2 29/55/2 43/56/2 35/43/2 38/42/2 41/25/2 16/24/2 7/57/2 3/17/2
f 30/32/2 44/41/2 43/56/2 29/55/2
f 28/31/2 45/38/2 44/41/2 30/32/2
l 16 46
